<?xml version="1.0" encoding="UTF-8" standalone="no"?>
<!-- Created with Inkscape (http://www.inkscape.org/) -->

<svg
   xmlns:dc="http://purl.org/dc/elements/1.1/"
  
   xmlns:cc="http://creativecommons.org/ns#"
   xmlns:rdf="http://www.w3.org/1999/02/22-rdf-syntax-ns#"
   xmlns:svg="http://www.w3.org/2000/svg"
   xmlns="http://www.w3.org/2000/svg"
   xmlns:sodipodi="http://sodipodi.sourceforge.net/DTD/sodipodi-0.dtd"
   xmlns:inkscape="http://www.inkscape.org/namespaces/inkscape"
   width="443.57101"
   height="104.286"
   id="svg2"
   version="1.1"
   inkscape:version="0.48.5 r10040"
   sodipodi:docname="New document 1">
  <defs
     id="defs4" />
  <sodipodi:namedview
     id="base"
     pagecolor="#ffffff"
     bordercolor="#666666"
     borderopacity="1.0"
     inkscape:pageopacity="0.0"
     inkscape:pageshadow="2"
     inkscape:zoom="1"
     inkscape:cx="-8.1490299"
     inkscape:cy="-26.34001"
     inkscape:document-units="px"
     inkscape:current-layer="layer1"
     showgrid="false"
     fit-margin-top="0"
     fit-margin-left="0"
     fit-margin-right="0"
     fit-margin-bottom="0"
     inkscape:window-width="1920"
     inkscape:window-height="1181"
     inkscape:window-x="0"
     inkscape:window-y="19"
     inkscape:window-maximized="0" />
  <metadata
     id="metadata7">
    <rdf:RDF>
      <cc:Work
         rdf:about="">
        <dc:format>image/svg+xml</dc:format>
        <dc:type
           rdf:resource="http://purl.org/dc/dcmitype/StillImage" />
        <dc:title></dc:title>
      </cc:Work>
    </rdf:RDF>
  </metadata>
  <g
     inkscape:label="Layer 1"
     inkscape:groupmode="layer"
     id="layer1"
     transform="translate(-175.26173,-225.03809)">
    <g
       id="g3811"
       transform="translate(249.19073,360.53305)">
      <rect
         rx="25"
         ry="25"
         y="-135.49496"
         x="-73.929001"
         height="104.286"
         width="443.57101"
         id="rect3773"
         style="fill:#c400a9;fill-opacity:1;fill-rule:nonzero;stroke:none" />
      <rect
         style="fill:#ff8df0;fill-opacity:1;fill-rule:nonzero;stroke:none"
         id="rect3775"
         width="423.57144"
         height="84.285713"
         x="-63.92857"
         y="-125.49496"
         ry="20"
         rx="20" />
      <path
         id="rect3777"
         d="m -27.90625,-125.5 -31.75,76.65625 c 3.655796,4.651494 9.317074,7.625 15.71875,7.625 l 8.1875,0 34.90625,-84.28125 -27.0625,0 z m 60,0 -34.90625,84.28125 27.0625,0 34.90625,-84.28125 -27.0625,0 z m 60,0 -34.90625,84.28125 27.0625,0 34.90625,-84.28125 -27.0625,0 z m 60,0 -34.90625,84.28125 27.0625,0 34.90625,-84.28125 -27.0625,0 z m 60,0 -34.90625,84.28125 27.0625,0 34.90625,-84.28125 -27.0625,0 z m 60,0 -34.90625,84.28125 27.0625,0 34.90625,-84.28125 -27.0625,0 z m 60,0 -34.90625,84.28125 27.0625,0 31.5,-76.125 c -3.63521,-4.93583 -9.46651,-8.15625 -16.09375,-8.15625 l -7.5625,0 z"
         style="fill:#ffa9f4;fill-opacity:1;fill-rule:nonzero;stroke:none"
         inkscape:connector-curvature="0" />
      <path
         id="rect3791"
         d="m 141.9375,-125.5 0,84.28125 197.71875,0 c 11.08,0 20,-8.92 20,-20 l 0,-44.28125 c 0,-11.08 -8.92,-20 -20,-20 l -197.71875,0 z"
         style="fill:#ffe1fc;fill-opacity:1;fill-rule:nonzero;stroke:none"
         inkscape:connector-curvature="0" />
      <path
         id="path3797"
         d="m 152.09375,-125.5 -10.15625,24.53125 0,59.75 2.3125,0 34.90625,-84.28125 -27.0625,0 z m 60,0 -34.90625,84.28125 27.0625,0 34.90625,-84.28125 -27.0625,0 z m 60,0 -34.90625,84.28125 27.0625,0 34.90625,-84.28125 -27.0625,0 z m 60,0 -34.90625,84.28125 27.0625,0 31.53125,-76.125 c -3.63393,-4.94916 -9.48727,-8.15625 -16.125,-8.15625 l -7.5625,0 z"
         style="fill:#ffffff;fill-opacity:1;fill-rule:nonzero;stroke:none"
         inkscape:connector-curvature="0" />
    </g>
  </g>
</svg>
